<?xml version="1.0" encoding="UTF-8" standalone="no"?><!DOCTYPE svg PUBLIC "-//W3C//DTD SVG 1.1//EN" "http://www.w3.org/Graphics/SVG/1.1/DTD/svg11.dtd"><svg width="100%" height="100%" viewBox="0 0 26 14" version="1.1" xmlns="http://www.w3.org/2000/svg" xmlns:xlink="http://www.w3.org/1999/xlink" xml:space="preserve" style="fill-rule:evenodd;clip-rule:evenodd;stroke-linejoin:round;stroke-miterlimit:1.41421;"><path d="M1.884,13.134l-0.746,0c-0.759,0 -1.138,-0.137 -1.138,-0.411c0,-0.049 0.025,-0.161 0.075,-0.335l4.104,-11.996c0.099,-0.261 0.454,-0.392 1.063,-0.392l0.97,0c0.61,0 0.964,0.131 1.064,0.392l4.104,11.996c0.038,0.124 0.056,0.236 0.056,0.335c0,0.274 -0.311,0.411 -0.933,0.411l-0.82,0c-0.61,0 -0.958,-0.131 -1.045,-0.392l-0.746,-2.276l-4.403,0l-0.747,2.276c-0.087,0.261 -0.373,0.392 -0.858,0.392Zm12.5,0l-0.541,0c-0.746,0 -1.12,-0.199 -1.12,-0.597l0,-11.94c0,-0.398 0.374,-0.597 1.12,-0.597l0.989,0c0.597,0 0.988,0.168 1.175,0.504l3.134,5.578l0.149,0.261l0.168,-0.317l3.153,-5.522c0.187,-0.336 0.579,-0.504 1.176,-0.504l0.97,0c0.746,0 1.119,0.199 1.119,0.597l0,11.94c0,0.398 -0.373,0.597 -1.119,0.597l-0.541,0c-0.747,0 -1.12,-0.199 -1.12,-0.597l0,-7.724l-0.074,-0.018l-2.706,4.832c-0.174,0.236 -0.422,0.354 -0.746,0.354l-0.541,0c-0.323,0 -0.572,-0.118 -0.746,-0.354l-2.705,-4.832l-0.075,0.018l0,7.724c0,0.398 -0.373,0.597 -1.119,0.597Zm-8.638,-9.645l-0.075,0c-0.012,0.074 -0.04,0.239 -0.084,0.494c-0.043,0.255 -0.108,0.488 -0.195,0.7l-1.101,3.32l2.798,0l-1.063,-3.32c-0.087,-0.249 -0.18,-0.647 -0.28,-1.194Z" style="fill:#403d2d;"/><rect x="0" y="12.945" width="25.876" height="0.189" style="fill:none;"/></svg>