<?xml version="1.0" encoding="UTF-8" standalone="no"?><!DOCTYPE svg PUBLIC "-//W3C//DTD SVG 1.1//EN" "http://www.w3.org/Graphics/SVG/1.1/DTD/svg11.dtd"><svg width="100%" height="100%" viewBox="0 0 64 38" version="1.1" xmlns="http://www.w3.org/2000/svg" xmlns:xlink="http://www.w3.org/1999/xlink" xml:space="preserve" style="fill-rule:evenodd;clip-rule:evenodd;stroke-linejoin:round;stroke-miterlimit:1.41421;"><g><path d="M63.133,1.2c0,-0.318 -0.126,-0.623 -0.351,-0.849c-0.225,-0.225 -0.531,-0.351 -0.849,-0.351c-7.936,0 -52.796,0 -60.733,0c-0.318,0 -0.623,0.126 -0.849,0.351c-0.225,0.226 -0.351,0.531 -0.351,0.849c0,5.624 0,29.336 0,34.96c0,0.318 0.126,0.623 0.351,0.849c0.226,0.225 0.531,0.351 0.849,0.351c7.937,0 52.797,0 60.733,0c0.318,0 0.624,-0.126 0.849,-0.351c0.225,-0.226 0.351,-0.531 0.351,-0.849c0,-5.624 0,-29.336 0,-34.96Z" style="fill:#c9c9c9;"/><path d="M57.293,8.371c0,0 0,17.64 0,21.949c0,0.663 -1.073,1.2 -2.397,1.2c-10.142,0 -48.999,0 -48.999,0l0,-23.149l51.396,0Z" style="fill:#9b9b9b;"/><path d="M5.84,7.106c0,0 0,-0.273 0,-0.606c0,-0.663 0.537,-1.2 1.2,-1.2c6.962,0 42.092,0 49.053,0c0.663,0 1.2,0.537 1.2,1.2l0,0.54c0,-0.663 -0.537,-1.2 -1.2,-1.2c-6.961,0 -42.091,0 -49.053,0c-0.663,0 -1.2,0.537 -1.2,1.2l0,0.066Z" style="fill:#919191;"/><path d="M57.293,8.371l-51.453,0l0,23.149l3.045,0l-3.045,-18.679l51.453,0l0,-4.47Z" style="fill-opacity:0.0627451;"/><path d="M7.04,31.52c5.076,0 49.053,0 49.053,0c0.663,0 1.2,-0.537 1.2,-1.2l0,0.56c0,0.663 -0.537,1.2 -1.2,1.2c-6.961,0 -42.091,0 -49.053,0c-0.663,0 -1.2,-0.537 -1.2,-1.2l0,-0.56c0,0.663 0.537,1.2 1.2,1.2Z" style="fill:#d1d1d1;"/><path d="M5.84,8.371l51.453,0c0,0 0,-0.677 0,-1.331c0,-0.663 -0.537,-1.2 -1.2,-1.2c-6.961,0 -42.091,0 -49.053,0c-0.663,0 -1.2,0.537 -1.2,1.2c0,0.654 0,1.331 0,1.331Z" style="fill:#858585;"/></g></svg>