<?xml version="1.0" encoding="UTF-8" standalone="no"?>
<!DOCTYPE svg PUBLIC "-//W3C//DTD SVG 1.1//EN" "http://www.w3.org/Graphics/SVG/1.1/DTD/svg11.dtd">
<svg width="100%" height="100%" viewBox="0 0 46 46" version="1.1" xmlns="http://www.w3.org/2000/svg" xmlns:xlink="http://www.w3.org/1999/xlink" xml:space="preserve" style="fill-rule:evenodd;clip-rule:evenodd;stroke-linejoin:round;stroke-miterlimit:1.41421;">
    <g transform="matrix(1,0,0,1,-2902.38,-1059.75)">
        <g transform="matrix(1,0,0,1,1.75,6.75)">
            <g transform="matrix(1,0,0,1,-1.75,-6.75)">
                <path d="M2925.08,1059.75C2937.6,1059.75 2947.77,1069.91 2947.77,1082.44C2947.77,1094.96 2937.6,1105.13 2925.08,1105.13C2912.55,1105.13 2902.39,1094.96 2902.39,1082.44C2902.39,1069.91 2912.55,1059.75 2925.08,1059.75ZM2923.27,1083.99C2923.27,1083.99 2929.87,1075.91 2932.7,1072.44C2933.04,1072.03 2933.52,1071.77 2934.05,1071.72C2934.58,1071.66 2935.11,1071.82 2935.52,1072.16C2936.36,1072.85 2937.4,1073.7 2938.24,1074.39C2938.66,1074.72 2938.92,1075.21 2938.97,1075.73C2939.02,1076.26 2938.86,1076.79 2938.53,1077.2C2935.7,1080.67 2929.09,1088.75 2929.09,1088.75L2924.33,1094.57L2918.51,1089.82C2918.51,1089.82 2915.16,1087.08 2913.11,1085.4C2912.25,1084.7 2912.13,1083.44 2912.82,1082.59C2913.51,1081.75 2914.36,1080.7 2915.05,1079.86C2915.75,1079.01 2917.01,1078.88 2917.87,1079.58C2919.91,1081.25 2923.27,1083.99 2923.27,1083.99Z" style="fill:rgb(139,195,74);"/>
            </g>
        </g>
    </g>
</svg>
