<?xml version="1.0" encoding="UTF-8" standalone="no"?><!DOCTYPE svg PUBLIC "-//W3C//DTD SVG 1.1//EN" "http://www.w3.org/Graphics/SVG/1.1/DTD/svg11.dtd"><svg width="100%" height="100%" viewBox="0 0 12 10" version="1.1" xmlns="http://www.w3.org/2000/svg" xmlns:xlink="http://www.w3.org/1999/xlink" xml:space="preserve" style="fill-rule:evenodd;clip-rule:evenodd;stroke-linejoin:round;stroke-miterlimit:1.41421;"><path d="M6.666,8.6c0.062,-0.42 -0.8,-0.298 -1.324,-0.536c-0.332,-0.151 -0.426,-0.368 -0.438,-0.512c-0.013,-0.144 0.003,-0.42 0.163,-0.676c0.165,-0.262 0.466,-0.372 0.642,-0.422c0.128,-0.037 0.463,-0.103 0.744,-0.103c0.231,0 0.439,0.024 0.625,0.071c0.185,0.047 0.331,0.107 0.438,0.179c0.106,0.072 0.159,0.147 0.159,0.224c0,0.063 -0.02,0.142 -0.061,0.237c-0.04,0.095 -0.09,0.177 -0.149,0.247c-0.059,0.07 -0.113,0.105 -0.163,0.105c-0.018,0 -0.067,-0.017 -0.146,-0.05c-0.079,-0.034 -0.167,-0.063 -0.265,-0.085c-0.097,-0.023 -0.211,-0.034 -0.343,-0.034c-0.235,0 -0.484,0.034 -0.557,0.173c-0.072,0.139 0.12,0.248 0.362,0.271c0.136,0.013 0.58,0.066 0.888,0.191c0.242,0.099 0.355,0.238 0.467,0.46c0.075,0.15 0.093,0.451 -0.046,0.669c-0.111,0.175 -0.353,0.35 -0.592,0.444c-0.523,0.207 -1.067,0.202 -1.519,0.045c-0.48,-0.167 -0.806,-0.421 -0.82,-0.519c-0.005,-0.032 -0.017,-0.13 0.015,-0.22c0.047,-0.131 0.134,-0.248 0.245,-0.319c0.048,-0.031 0.194,-0.076 0.236,-0.055c0.257,0.125 0.476,0.241 0.595,0.283c0.252,0.089 0.806,0.192 0.844,-0.068Zm3.141,0.835l-0.238,0c-0.271,0 -0.407,-0.072 -0.407,-0.217l0,-1.81l-1.08,0c-0.072,0 -0.124,-0.027 -0.156,-0.081c-0.032,-0.055 -0.048,-0.14 -0.048,-0.258l0,-0.21c0,-0.117 0.016,-0.203 0.048,-0.257c0.032,-0.054 0.084,-0.082 0.156,-0.082l3.212,0c0.072,0 0.125,0.028 0.156,0.082c0.032,0.054 0.048,0.14 0.048,0.257l0,0.21c0,0.118 -0.016,0.203 -0.048,0.258c-0.031,0.054 -0.084,0.081 -0.156,0.081l-1.08,0l0,1.81c0,0.145 -0.135,0.217 -0.407,0.217Zm-7.258,-0.008l-1.521,0c-0.095,0 -0.164,-0.022 -0.207,-0.064c-0.043,-0.043 -0.065,-0.112 -0.065,-0.207l0,-2.392c0,-0.095 0.022,-0.164 0.065,-0.207c0.043,-0.043 0.112,-0.064 0.207,-0.064l1.521,0c0.349,0 1,0.137 1.454,0.427c0.459,0.293 0.503,0.74 0.503,1.124c0,0.38 -0.062,0.827 -0.514,1.077c-0.457,0.253 -1.09,0.306 -1.443,0.306Zm-0.74,-2.047l0,1.159l0.74,0c0.362,0 0.884,-0.012 0.884,-0.495c0,-0.483 -0.522,-0.664 -0.884,-0.664l-0.74,0Zm0.339,-1.808c0,0 6.287,0.027 7.719,0c-0.033,-1.012 -1.113,-3.29 -3.816,-3.29c-2.702,0 -3.935,2.126 -3.903,3.29Zm8.254,-0.172c0,0 1.607,-0.51 1.586,-0.681c-0.023,-0.189 -1.709,-0.513 -1.709,-0.513c0,0 -0.326,0.31 -0.303,0.61c0.026,0.346 0.426,0.584 0.426,0.584Zm-8.816,-0.017c0,0 -1.607,-0.509 -1.586,-0.68c0.024,-0.19 1.709,-0.514 1.709,-0.514c0,0 0.326,0.31 0.303,0.611c-0.026,0.345 -0.426,0.583 -0.426,0.583Zm0.554,-1.817c0,0 -0.911,-1.419 -0.786,-1.537c0.14,-0.131 1.643,0.697 1.643,0.697c0,0 0.053,0.447 -0.157,0.663c-0.241,0.249 -0.7,0.177 -0.7,0.177Zm7.605,-0.038c0,0 0.911,-1.419 0.785,-1.537c-0.139,-0.131 -1.642,0.697 -1.642,0.697c0,0 -0.053,0.447 0.156,0.663c0.242,0.249 0.701,0.177 0.701,0.177Zm-6.272,-1.258c0,0 -0.331,-1.654 -0.171,-1.718c0.178,-0.071 1.275,1.248 1.275,1.248c0,0 -0.114,0.436 -0.388,0.561c-0.315,0.144 -0.716,-0.091 -0.716,-0.091Zm4.905,-0.029c0,0 0.33,-1.654 0.17,-1.718c-0.177,-0.071 -1.274,1.248 -1.274,1.248c0,0 0.113,0.436 0.387,0.561c0.316,0.144 0.717,-0.091 0.717,-0.091Zm-1.962,-0.631c0,0 -0.451,-1.625 -0.622,-1.61c-0.191,0.017 -0.575,1.689 -0.575,1.689c0,0 0.298,0.337 0.599,0.325c0.346,-0.013 0.598,-0.404 0.598,-0.404Z" style="fill:#fdae00;"/></svg>