<?xml version="1.0" encoding="UTF-8" standalone="no"?><!DOCTYPE svg PUBLIC "-//W3C//DTD SVG 1.1//EN" "http://www.w3.org/Graphics/SVG/1.1/DTD/svg11.dtd"><svg width="100%" height="100%" viewBox="0 0 10 10" version="1.1" xmlns="http://www.w3.org/2000/svg" xmlns:xlink="http://www.w3.org/1999/xlink" xml:space="preserve" style="fill-rule:evenodd;clip-rule:evenodd;stroke-linejoin:round;stroke-miterlimit:1.41421;"><path d="M4.815,0.006c0.026,-0.003 0.053,-0.005 0.079,-0.006c0.026,0 0.026,0 0.051,0.001c0.014,0.002 0.023,0.003 0.031,0.004c0.229,0.004 0.457,0.022 0.683,0.056c0.459,0.07 0.907,0.206 1.328,0.403c0.518,0.242 0.993,0.575 1.397,0.98c0.348,0.348 0.644,0.748 0.874,1.184c0.168,0.318 0.301,0.655 0.395,1.003c0.205,0.759 0.225,1.566 0.058,2.334c-0.094,0.431 -0.247,0.849 -0.453,1.24c-0.239,0.452 -0.55,0.867 -0.916,1.225c-0.438,0.428 -0.955,0.773 -1.519,1.011c-0.583,0.247 -1.213,0.378 -1.846,0.386c-0.011,0.002 -0.021,0.003 -0.032,0.004c-0.04,0.003 -0.081,0.001 -0.121,-0.003c-0.004,0 -0.008,-0.001 -0.012,-0.001c-0.581,-0.012 -1.16,-0.127 -1.701,-0.34c-0.533,-0.211 -1.029,-0.516 -1.457,-0.896c-0.398,-0.353 -0.738,-0.77 -1.003,-1.23c-0.189,-0.329 -0.34,-0.68 -0.448,-1.043c-0.23,-0.773 -0.265,-1.601 -0.103,-2.391c0.077,-0.374 0.197,-0.74 0.359,-1.086c0.201,-0.429 0.464,-0.829 0.778,-1.183c0.432,-0.486 0.96,-0.886 1.546,-1.169c0.399,-0.192 0.824,-0.33 1.26,-0.408c0.255,-0.045 0.513,-0.07 0.772,-0.075Zm4.106,5.653c-0.032,0.009 -0.064,0.017 -0.096,0.025c-0.146,0.037 -0.294,0.068 -0.443,0.095c-0.215,0.039 -0.43,0.07 -0.647,0.097c-0.248,0.031 -0.496,0.055 -0.746,0.075c-0.536,0.043 -1.074,0.067 -1.612,0.075c-0.47,0.008 -0.94,0.004 -1.41,-0.011c0.001,0.014 0.002,0.028 0.003,0.042c0.031,0.357 0.076,0.713 0.141,1.065c0.056,0.297 0.125,0.592 0.217,0.88c0.067,0.209 0.147,0.417 0.252,0.61c0.033,0.061 0.069,0.121 0.11,0.177c0.033,0.046 0.068,0.09 0.109,0.129c0.022,0.021 0.046,0.04 0.072,0.055c0.014,0.008 0.028,0.015 0.044,0.015l0.038,0.002c0.006,0.001 0.011,0.002 0.016,0.002c0.474,-0.006 0.946,-0.095 1.39,-0.264c0.445,-0.169 0.86,-0.418 1.22,-0.73c0.333,-0.289 0.62,-0.631 0.844,-1.011c0.177,-0.299 0.315,-0.621 0.411,-0.955c0.035,-0.123 0.064,-0.248 0.087,-0.373Zm-8.019,0c0.008,0.043 0.017,0.086 0.026,0.128c0.078,0.358 0.205,0.704 0.376,1.028c0.191,0.362 0.436,0.694 0.725,0.983c0.36,0.36 0.786,0.651 1.251,0.855c0.15,0.066 0.304,0.122 0.461,0.169c-0.061,-0.131 -0.115,-0.266 -0.163,-0.403c-0.073,-0.206 -0.134,-0.416 -0.186,-0.628c-0.113,-0.456 -0.187,-0.922 -0.237,-1.39c-0.015,-0.142 -0.028,-0.285 -0.038,-0.429c-0.402,-0.026 -0.802,-0.064 -1.201,-0.118c-0.133,-0.019 -0.267,-0.039 -0.4,-0.062c-0.119,-0.021 -0.238,-0.044 -0.357,-0.07c-0.075,-0.016 -0.149,-0.034 -0.223,-0.054c-0.011,-0.003 -0.022,-0.006 -0.034,-0.009Zm4.068,-4.819c-0.005,0.001 -0.011,0.001 -0.017,0.002c-0.015,0.001 -0.032,0 -0.048,0.003c-0.007,0.001 -0.013,0.004 -0.019,0.006c-0.05,0.024 -0.092,0.065 -0.128,0.106c-0.07,0.079 -0.127,0.17 -0.178,0.263c-0.083,0.152 -0.149,0.312 -0.206,0.475c-0.073,0.206 -0.132,0.417 -0.182,0.629c-0.081,0.345 -0.138,0.695 -0.18,1.046c-0.053,0.439 -0.08,0.88 -0.087,1.322c-0.003,0.169 -0.003,0.339 0.001,0.509c0.252,0.009 0.505,0.014 0.758,0.016c0.683,0.006 1.366,-0.012 2.047,-0.06c0.275,-0.02 0.548,-0.045 0.821,-0.077c0.229,-0.027 0.458,-0.059 0.685,-0.1c0.164,-0.03 0.328,-0.064 0.49,-0.11c0.056,-0.016 0.112,-0.033 0.166,-0.053c0.032,-0.011 0.063,-0.023 0.093,-0.037c-0.006,-0.179 -0.023,-0.358 -0.053,-0.535c-0.055,-0.33 -0.15,-0.654 -0.285,-0.96c-0.164,-0.376 -0.386,-0.726 -0.654,-1.036c-0.354,-0.408 -0.788,-0.745 -1.272,-0.986c-0.343,-0.171 -0.711,-0.292 -1.089,-0.36c-0.195,-0.035 -0.392,-0.055 -0.59,-0.062c-0.024,0 -0.049,-0.001 -0.073,-0.001Zm-1.229,0.17c-0.188,0.057 -0.373,0.127 -0.551,0.21c-0.43,0.201 -0.825,0.478 -1.161,0.814c-0.3,0.301 -0.554,0.648 -0.748,1.027c-0.144,0.281 -0.255,0.579 -0.33,0.885c-0.067,0.274 -0.105,0.554 -0.114,0.835l0,0c0.107,0.046 0.22,0.08 0.333,0.109c0.138,0.036 0.277,0.065 0.417,0.09c0.402,0.073 0.81,0.119 1.218,0.154c0.092,0.008 0.184,0.015 0.276,0.022c-0.003,-0.14 -0.003,-0.279 -0.001,-0.418c0.006,-0.526 0.04,-1.052 0.107,-1.574c0.06,-0.467 0.145,-0.932 0.275,-1.385c0.035,-0.123 0.073,-0.245 0.116,-0.366c0.035,-0.1 0.074,-0.199 0.116,-0.297c0.015,-0.035 0.031,-0.071 0.047,-0.106Z" style="fill:#e6e6e6;"/><path d="M5.468,8.67c0.013,0.002 0.025,0.003 0.038,0.005c0.05,0.008 0.098,0.026 0.141,0.051c0.033,0.019 0.063,0.043 0.09,0.07c0.08,0.082 0.123,0.195 0.119,0.309c-0.001,0.038 -0.007,0.076 -0.019,0.112c-0.011,0.036 -0.027,0.071 -0.048,0.103c-0.027,0.041 -0.061,0.08 -0.094,0.117c-0.094,0.105 -0.202,0.2 -0.325,0.27c-0.035,0.02 -0.071,0.039 -0.109,0.053c-0.036,0.013 -0.073,0.021 -0.111,0.024c-0.05,0.004 -0.101,-0.002 -0.15,-0.016c-0.036,-0.01 -0.071,-0.025 -0.103,-0.045c-0.109,-0.067 -0.183,-0.182 -0.199,-0.308c-0.006,-0.05 -0.003,-0.102 0.009,-0.151c0.023,-0.098 0.083,-0.187 0.166,-0.245c0.01,-0.008 0.021,-0.015 0.032,-0.021c0.017,-0.01 0.036,-0.018 0.053,-0.028c0.011,-0.007 0.02,-0.014 0.03,-0.021c0.043,-0.034 0.08,-0.075 0.114,-0.118l0.025,-0.029c0.024,-0.023 0.029,-0.03 0.056,-0.05c0.051,-0.038 0.11,-0.064 0.172,-0.076c0.033,-0.006 0.042,-0.006 0.075,-0.007c0.013,0 0.026,0.001 0.038,0.001Zm0.627,-1.556c0.013,0.002 0.025,0.003 0.038,0.005c0.037,0.007 0.073,0.019 0.107,0.035c0.127,0.061 0.217,0.184 0.236,0.323c0.005,0.038 0.005,0.076 0,0.114c-0.001,0.012 -0.004,0.025 -0.006,0.037c-0.013,0.055 -0.026,0.109 -0.039,0.163c-0.022,0.088 -0.045,0.175 -0.07,0.262l-0.002,0.008c-0.011,0.032 -0.012,0.041 -0.027,0.071c-0.023,0.045 -0.054,0.086 -0.091,0.121c-0.037,0.034 -0.08,0.062 -0.126,0.081c-0.047,0.019 -0.097,0.03 -0.148,0.032c-0.127,0.004 -0.252,-0.052 -0.335,-0.149c-0.024,-0.029 -0.045,-0.061 -0.061,-0.095c-0.016,-0.035 -0.027,-0.071 -0.033,-0.108c-0.011,-0.065 -0.006,-0.13 0.012,-0.193c0.014,-0.051 0.028,-0.102 0.041,-0.153c0.014,-0.053 0.027,-0.106 0.04,-0.16l0.01,-0.041l0.005,-0.026l0.01,-0.036c0.005,-0.012 0.009,-0.024 0.014,-0.036c0.009,-0.023 0.021,-0.045 0.035,-0.066c0.056,-0.085 0.142,-0.148 0.24,-0.175c0.024,-0.007 0.049,-0.011 0.074,-0.014c0.013,-0.001 0.026,-0.001 0.038,-0.001c0.013,0 0.025,0.001 0.038,0.001Zm0.243,-1.669c0.012,0.002 0.025,0.003 0.037,0.006c0.025,0.005 0.049,0.012 0.073,0.021c0.118,0.048 0.21,0.149 0.247,0.271c0.011,0.036 0.017,0.074 0.018,0.112c0,0.012 -0.001,0.025 -0.001,0.037c-0.005,0.079 -0.012,0.158 -0.018,0.236c-0.005,0.055 -0.01,0.11 -0.015,0.165l-0.003,0.034c-0.002,0.012 -0.004,0.025 -0.006,0.037c-0.009,0.05 -0.028,0.098 -0.054,0.141c-0.027,0.043 -0.061,0.081 -0.101,0.113c-0.03,0.023 -0.063,0.042 -0.098,0.057c-0.117,0.048 -0.254,0.041 -0.365,-0.021c-0.044,-0.024 -0.084,-0.056 -0.117,-0.095c-0.058,-0.067 -0.093,-0.152 -0.1,-0.241c-0.003,-0.033 -0.001,-0.042 0.001,-0.075c0.008,-0.08 0.015,-0.159 0.021,-0.238c0.004,-0.053 0.008,-0.105 0.012,-0.158l0.001,-0.011c0.001,-0.012 0.002,-0.025 0.004,-0.037c0.006,-0.038 0.017,-0.074 0.032,-0.109c0.053,-0.116 0.158,-0.204 0.281,-0.235c0.025,-0.006 0.05,-0.01 0.075,-0.012c0.013,-0.001 0.025,0 0.038,-0.001c0.013,0.001 0.025,0.002 0.038,0.003Zm0.001,-1.688c0.012,0.001 0.025,0.002 0.037,0.004c0.038,0.007 0.074,0.019 0.108,0.035c0.104,0.049 0.184,0.14 0.22,0.248c0.008,0.024 0.014,0.049 0.017,0.074c0.002,0.013 0.003,0.025 0.004,0.038c0.004,0.076 0.007,0.153 0.01,0.229c0.002,0.059 0.004,0.117 0.005,0.175l0.001,0.029c-0.001,0.034 0,0.042 -0.005,0.076c-0.014,0.087 -0.056,0.17 -0.119,0.232c-0.09,0.09 -0.219,0.135 -0.345,0.121c-0.038,-0.004 -0.075,-0.013 -0.11,-0.027c-0.047,-0.019 -0.091,-0.046 -0.128,-0.081c-0.037,-0.034 -0.068,-0.074 -0.091,-0.119c-0.023,-0.046 -0.038,-0.095 -0.044,-0.145c-0.001,-0.012 -0.001,-0.025 -0.002,-0.038c-0.002,-0.082 -0.005,-0.165 -0.008,-0.247c-0.002,-0.054 -0.005,-0.108 -0.007,-0.163l0,-0.038c0.001,-0.012 0.001,-0.025 0.003,-0.037c0.005,-0.038 0.015,-0.075 0.029,-0.11c0.05,-0.117 0.152,-0.208 0.275,-0.242c0.024,-0.007 0.049,-0.012 0.074,-0.014c0.013,-0.001 0.025,-0.001 0.038,-0.002c0.013,0.001 0.025,0.001 0.038,0.002Zm-0.188,-1.674c0.013,0.002 0.025,0.004 0.038,0.006c0.024,0.006 0.048,0.013 0.072,0.023c0.094,0.038 0.172,0.11 0.218,0.201c0.011,0.023 0.02,0.046 0.027,0.07c0.004,0.012 0.006,0.025 0.009,0.037c0.013,0.062 0.024,0.123 0.036,0.185c0.011,0.066 0.023,0.132 0.034,0.199l0.007,0.048c0.004,0.033 0.006,0.042 0.005,0.075c-0.002,0.089 -0.032,0.176 -0.086,0.247c-0.077,0.101 -0.199,0.163 -0.326,0.166c-0.038,0.001 -0.076,-0.004 -0.113,-0.013c-0.049,-0.012 -0.096,-0.033 -0.137,-0.062c-0.042,-0.029 -0.078,-0.065 -0.107,-0.107c-0.028,-0.041 -0.05,-0.088 -0.062,-0.137c-0.003,-0.012 -0.005,-0.025 -0.008,-0.037c-0.009,-0.061 -0.019,-0.123 -0.03,-0.184c-0.013,-0.072 -0.026,-0.144 -0.04,-0.215l-0.006,-0.038c-0.001,-0.012 -0.002,-0.025 -0.003,-0.038c0,-0.037 0.004,-0.075 0.014,-0.112c0.035,-0.136 0.138,-0.248 0.271,-0.294c0.036,-0.012 0.074,-0.02 0.112,-0.022c0.012,-0.001 0.025,0 0.037,0c0.013,0 0.026,0.001 0.038,0.002Zm-0.548,-1.588c0.033,0.005 0.042,0.006 0.074,0.015c0.049,0.015 0.094,0.039 0.134,0.07c0.03,0.023 0.057,0.05 0.08,0.08c0.015,0.021 0.027,0.041 0.04,0.063c0.012,0.02 0.024,0.041 0.036,0.061c0.06,0.108 0.113,0.219 0.162,0.332l0.004,0.009c0.012,0.031 0.016,0.039 0.023,0.072c0.02,0.086 0.011,0.178 -0.024,0.259c-0.015,0.035 -0.034,0.068 -0.058,0.098c-0.08,0.099 -0.203,0.158 -0.33,0.158c-0.038,0 -0.076,-0.005 -0.112,-0.016c-0.049,-0.013 -0.095,-0.035 -0.136,-0.065c-0.041,-0.03 -0.076,-0.067 -0.104,-0.109c-0.007,-0.011 -0.013,-0.022 -0.019,-0.033c-0.024,-0.049 -0.045,-0.098 -0.068,-0.147c-0.023,-0.049 -0.048,-0.097 -0.074,-0.144c-0.008,-0.015 -0.017,-0.029 -0.025,-0.043c-0.004,-0.007 -0.008,-0.014 -0.012,-0.021c-0.001,0 0,0.002 0.001,0.002l-0.019,-0.033c-0.005,-0.011 -0.01,-0.023 -0.015,-0.034c-0.019,-0.047 -0.029,-0.098 -0.029,-0.148c-0.001,-0.038 0.003,-0.076 0.013,-0.113c0.032,-0.123 0.12,-0.227 0.236,-0.279c0.046,-0.021 0.096,-0.033 0.147,-0.036c0.012,-0.001 0.025,-0.001 0.037,-0.001c0.013,0.001 0.026,0.002 0.038,0.003Z" style="fill:#e6e6e6;fill-opacity:0.384314;fill-rule:nonzero;"/></svg>