<?xml version="1.0" encoding="UTF-8" standalone="no"?><!DOCTYPE svg PUBLIC "-//W3C//DTD SVG 1.1//EN" "http://www.w3.org/Graphics/SVG/1.1/DTD/svg11.dtd"><svg width="100%" height="100%" viewBox="0 0 31 31" version="1.1" xmlns="http://www.w3.org/2000/svg" xmlns:xlink="http://www.w3.org/1999/xlink" xml:space="preserve" style="fill-rule:evenodd;clip-rule:evenodd;stroke-linejoin:round;stroke-miterlimit:1.41421;"><path d="M12.48,12.48l0,-10.08c0,-0.637 0.253,-1.247 0.703,-1.697c0.45,-0.45 1.06,-0.703 1.697,-0.703c0.356,0 0.724,0 1.08,0c0.637,0 1.247,0.253 1.697,0.703c0.45,0.45 0.703,1.06 0.703,1.697l0,10.08l10.08,0c0.637,0 1.247,0.253 1.697,0.703c0.45,0.45 0.703,1.06 0.703,1.697c0,0.356 0,0.724 0,1.08c0,0.637 -0.253,1.247 -0.703,1.697c-0.45,0.45 -1.06,0.703 -1.697,0.703l-10.08,0l0,10.08c0,0.637 -0.253,1.247 -0.703,1.697c-0.45,0.45 -1.06,0.703 -1.697,0.703c-0.356,0 -0.724,0 -1.08,0c-0.637,0 -1.247,-0.253 -1.697,-0.703c-0.45,-0.45 -0.703,-1.06 -0.703,-1.697l0,-10.08l-10.08,0c-0.637,0 -1.247,-0.253 -1.697,-0.703c-0.45,-0.45 -0.703,-1.06 -0.703,-1.697c0,-0.356 0,-0.724 0,-1.08c0,-0.637 0.253,-1.247 0.703,-1.697c0.45,-0.45 1.06,-0.703 1.697,-0.703l10.08,0Z" style="fill:#fff5c4;"/></svg>