<?xml version="1.0" encoding="UTF-8" standalone="no"?><!DOCTYPE svg PUBLIC "-//W3C//DTD SVG 1.1//EN" "http://www.w3.org/Graphics/SVG/1.1/DTD/svg11.dtd"><svg width="100%" height="100%" viewBox="0 0 26 14" version="1.1" xmlns="http://www.w3.org/2000/svg" xmlns:xlink="http://www.w3.org/1999/xlink" xml:space="preserve" style="fill-rule:evenodd;clip-rule:evenodd;stroke-linejoin:round;stroke-miterlimit:1.41421;"><path d="M1.754,13.134l-0.635,0c-0.746,0 -1.119,-0.199 -1.119,-0.597l0,-11.753c0,-0.262 0.059,-0.451 0.177,-0.569c0.118,-0.119 0.308,-0.178 0.569,-0.178l3.918,0c1.169,0 2.201,0.283 3.097,0.849c0.895,0.566 1.343,1.645 1.343,3.237c0,1.094 -0.261,1.943 -0.783,2.547c-0.523,0.603 -1.107,1.01 -1.754,1.222c-0.647,0.211 -1.219,0.317 -1.716,0.317l-1.978,0l0,4.328c0,0.398 -0.373,0.597 -1.119,0.597Zm10.54,0l-0.541,0c-0.746,0 -1.119,-0.199 -1.119,-0.597l0,-11.94c0,-0.398 0.373,-0.597 1.119,-0.597l0.989,0c0.597,0 0.989,0.168 1.175,0.504l3.135,5.578l0.149,0.261l0.168,-0.317l3.153,-5.522c0.186,-0.336 0.578,-0.504 1.175,-0.504l0.97,0c0.746,0 1.12,0.199 1.12,0.597l0,11.94c0,0.398 -0.374,0.597 -1.12,0.597l-0.541,0c-0.746,0 -1.119,-0.199 -1.119,-0.597l0,-7.724l-0.075,-0.018l-2.705,4.832c-0.174,0.236 -0.423,0.354 -0.746,0.354l-0.541,0c-0.324,0 -0.572,-0.118 -0.747,-0.354l-2.705,-4.832l-0.074,0.018l0,7.724c0,0.398 -0.373,0.597 -1.12,0.597Zm-7.761,-10.653l-1.66,0l0,3.265l1.66,0c0.448,0 0.831,-0.118 1.148,-0.354c0.317,-0.237 0.476,-0.66 0.476,-1.269c0,-0.609 -0.159,-1.035 -0.476,-1.278c-0.317,-0.242 -0.7,-0.364 -1.148,-0.364Z" style="fill:#403d2d;"/><rect x="0" y="12.945" width="25.876" height="0.189" style="fill:none;"/></svg>