<?xml version="1.0" encoding="UTF-8" standalone="no"?>
<!DOCTYPE svg PUBLIC "-//W3C//DTD SVG 1.1//EN" "http://www.w3.org/Graphics/SVG/1.1/DTD/svg11.dtd">
<svg width="100%" height="100%" viewBox="0 0 29 29" version="1.1" xmlns="http://www.w3.org/2000/svg" xmlns:xlink="http://www.w3.org/1999/xlink" xml:space="preserve" style="fill-rule:evenodd;clip-rule:evenodd;stroke-linejoin:round;stroke-miterlimit:1.41421;">
    <g transform="matrix(1,0,0,1,-2965.44,-1059.75)">
        <g transform="matrix(1,0,0,1,1.75,6.75)">
            <g transform="matrix(1.46469,0,0,1.46469,548.465,-506.77)">
                <path d="M1650.87,1075.43L1657.63,1068.67L1664.39,1075.43L1657.63,1082.19C1657.63,1082.19 1653.5,1083.3 1650.76,1084.04C1650.27,1084.17 1649.75,1084.03 1649.39,1083.67C1649.03,1083.31 1648.89,1082.79 1649.02,1082.3L1650.87,1075.43ZM1652.48,1077.77L1651.73,1080.42C1651.73,1080.42 1652.66,1080.82 1652.81,1081.6C1653.6,1081.3 1655.43,1080.64 1655.43,1080.64L1655.19,1079.72C1655.19,1079.72 1654.25,1079.75 1653.84,1079.12C1653.43,1078.49 1653.42,1077.97 1653.42,1077.97L1652.48,1077.77ZM1665.84,1073.97C1665.84,1073.97 1666.34,1073.48 1666.97,1072.84C1667.72,1072.09 1668.14,1071.08 1668.14,1070.02C1668.14,1068.95 1667.72,1067.94 1666.97,1067.19C1666.61,1066.82 1666.24,1066.45 1665.87,1066.09C1665.12,1065.34 1664.11,1064.91 1663.04,1064.91C1661.98,1064.91 1660.97,1065.34 1660.22,1066.09C1659.58,1066.72 1659.09,1067.22 1659.09,1067.22L1665.84,1073.97Z" style="fill:#dadada;"/>
            </g>
        </g>
    </g>
</svg>
