<?xml version="1.0" encoding="UTF-8" standalone="no"?>
<!DOCTYPE svg PUBLIC "-//W3C//DTD SVG 1.1//EN" "http://www.w3.org/Graphics/SVG/1.1/DTD/svg11.dtd">
<svg width="100%" height="100%" viewBox="0 0 41 41" version="1.1" xmlns="http://www.w3.org/2000/svg" xmlns:xlink="http://www.w3.org/1999/xlink" xml:space="preserve" style="fill-rule:evenodd;clip-rule:evenodd;stroke-linejoin:round;stroke-miterlimit:1.41421;">
    <g transform="matrix(1,0,0,1,-2200.44,-1131.51)">
        <g transform="matrix(1,0,0,1,1.75,6.75)">
            <g transform="matrix(1,0,0,1,-1.75,-6.75)">
                <path d="M2220.5,1131.53C2220.61,1131.52 2220.72,1131.51 2220.83,1131.51C2220.94,1131.51 2220.94,1131.51 2221.04,1131.51C2221.1,1131.52 2221.14,1131.52 2221.17,1131.53C2222.13,1131.54 2223.07,1131.62 2224.01,1131.76C2225.93,1132.05 2227.8,1132.62 2229.55,1133.44C2231.71,1134.45 2233.69,1135.84 2235.37,1137.52C2236.82,1138.97 2238.05,1140.64 2239.01,1142.46C2239.71,1143.78 2240.27,1145.19 2240.66,1146.63C2241.51,1149.8 2241.6,1153.16 2240.9,1156.36C2240.51,1158.16 2239.87,1159.9 2239.01,1161.53C2238.02,1163.41 2236.72,1165.14 2235.2,1166.63C2233.37,1168.41 2231.22,1169.85 2228.87,1170.85C2226.44,1171.87 2223.81,1172.42 2221.17,1172.45C2221.13,1172.46 2221.09,1172.47 2221.04,1172.47C2220.88,1172.48 2220.7,1172.47 2220.54,1172.46C2220.52,1172.45 2220.51,1172.45 2220.49,1172.45C2218.07,1172.4 2215.66,1171.92 2213.4,1171.04C2211.18,1170.16 2209.12,1168.89 2207.33,1167.3C2205.67,1165.83 2204.26,1164.1 2203.15,1162.18C2202.36,1160.81 2201.74,1159.35 2201.28,1157.83C2200.33,1154.61 2200.18,1151.16 2200.85,1147.87C2201.17,1146.31 2201.68,1144.79 2202.35,1143.34C2203.19,1141.56 2204.28,1139.89 2205.59,1138.42C2207.39,1136.39 2209.59,1134.72 2212.03,1133.55C2213.7,1132.75 2215.47,1132.17 2217.28,1131.85C2218.35,1131.66 2219.42,1131.55 2220.5,1131.53ZM2237.61,1155.09C2237.47,1155.12 2237.34,1155.16 2237.21,1155.19C2236.6,1155.34 2235.98,1155.47 2235.36,1155.59C2234.47,1155.75 2233.57,1155.88 2232.67,1155.99C2231.64,1156.12 2230.6,1156.22 2229.56,1156.3C2227.33,1156.48 2225.09,1156.58 2222.84,1156.62C2220.88,1156.65 2218.92,1156.63 2216.97,1156.57C2216.97,1156.63 2216.97,1156.68 2216.98,1156.74C2217.11,1158.23 2217.3,1159.71 2217.57,1161.18C2217.8,1162.42 2218.09,1163.65 2218.47,1164.85C2218.75,1165.72 2219.08,1166.59 2219.52,1167.39C2219.66,1167.64 2219.81,1167.89 2219.98,1168.13C2220.12,1168.32 2220.26,1168.5 2220.43,1168.67C2220.53,1168.75 2220.62,1168.83 2220.73,1168.9C2220.79,1168.93 2220.85,1168.96 2220.92,1168.96L2221.08,1168.97C2221.1,1168.97 2221.12,1168.97 2221.14,1168.98C2223.12,1168.95 2225.09,1168.58 2226.93,1167.87C2228.79,1167.17 2230.51,1166.13 2232.01,1164.83C2233.41,1163.63 2234.6,1162.2 2235.53,1160.62C2236.27,1159.37 2236.85,1158.03 2237.24,1156.64C2237.39,1156.13 2237.51,1155.61 2237.61,1155.09ZM2204.2,1155.09C2204.23,1155.26 2204.27,1155.44 2204.3,1155.62C2204.63,1157.11 2205.16,1158.55 2205.87,1159.9C2206.66,1161.41 2207.69,1162.79 2208.89,1164C2210.39,1165.5 2212.17,1166.71 2214.11,1167.56C2214.73,1167.83 2215.37,1168.07 2216.03,1168.27C2215.77,1167.72 2215.55,1167.15 2215.35,1166.59C2215.04,1165.73 2214.79,1164.85 2214.57,1163.97C2214.1,1162.07 2213.79,1160.13 2213.59,1158.18C2213.52,1157.58 2213.47,1156.99 2213.42,1156.39C2211.75,1156.28 2210.08,1156.12 2208.42,1155.9C2207.87,1155.82 2207.31,1155.74 2206.76,1155.64C2206.26,1155.55 2205.76,1155.46 2205.27,1155.35C2204.96,1155.28 2204.65,1155.21 2204.34,1155.12C2204.29,1155.11 2204.24,1155.1 2204.2,1155.09ZM2221.15,1135.01C2221.12,1135.01 2221.1,1135.01 2221.08,1135.02C2221.01,1135.02 2220.94,1135.02 2220.88,1135.03C2220.85,1135.03 2220.82,1135.04 2220.8,1135.05C2220.59,1135.15 2220.41,1135.32 2220.26,1135.5C2219.97,1135.82 2219.73,1136.2 2219.52,1136.59C2219.18,1137.22 2218.9,1137.89 2218.66,1138.57C2218.36,1139.43 2218.11,1140.31 2217.91,1141.19C2217.57,1142.63 2217.33,1144.09 2217.15,1145.55C2216.93,1147.38 2216.82,1149.22 2216.79,1151.06C2216.78,1151.76 2216.78,1152.47 2216.8,1153.18C2217.85,1153.21 2218.9,1153.24 2219.95,1153.25C2222.8,1153.27 2225.65,1153.19 2228.49,1152.99C2229.63,1152.91 2230.77,1152.81 2231.91,1152.67C2232.86,1152.56 2233.81,1152.43 2234.76,1152.26C2235.44,1152.13 2236.13,1151.99 2236.8,1151.8C2237.03,1151.73 2237.26,1151.66 2237.49,1151.58C2237.62,1151.53 2237.75,1151.48 2237.88,1151.42C2237.86,1150.68 2237.78,1149.93 2237.66,1149.19C2237.43,1147.82 2237.03,1146.47 2236.47,1145.19C2235.79,1143.63 2234.86,1142.17 2233.74,1140.88C2232.27,1139.18 2230.46,1137.77 2228.45,1136.77C2227.02,1136.06 2225.48,1135.55 2223.91,1135.27C2223.1,1135.13 2222.28,1135.04 2221.45,1135.01C2221.35,1135.01 2221.25,1135.01 2221.15,1135.01ZM2216.03,1135.72C2215.24,1135.95 2214.47,1136.24 2213.73,1136.59C2211.94,1137.43 2210.29,1138.58 2208.89,1139.98C2207.64,1141.24 2206.58,1142.68 2205.78,1144.26C2205.18,1145.43 2204.71,1146.67 2204.4,1147.95C2204.12,1149.09 2203.96,1150.26 2203.93,1151.43L2203.93,1151.43C2204.37,1151.62 2204.84,1151.76 2205.31,1151.88C2205.89,1152.03 2206.47,1152.15 2207.05,1152.26C2208.73,1152.56 2210.43,1152.75 2212.12,1152.9C2212.51,1152.93 2212.89,1152.96 2213.27,1152.99C2213.26,1152.41 2213.26,1151.83 2213.27,1151.25C2213.3,1149.06 2213.44,1146.87 2213.72,1144.69C2213.97,1142.75 2214.32,1140.81 2214.86,1138.92C2215.01,1138.41 2215.17,1137.9 2215.35,1137.4C2215.49,1136.98 2215.65,1136.57 2215.83,1136.16C2215.89,1136.01 2215.96,1135.86 2216.03,1135.72Z" style="fill:rgb(44,162,210);"/>
            </g>
        </g>
        <g transform="matrix(1,0,0,1,1.75,6.75)">
            <g transform="matrix(0.441223,0,0,1.40558,2111.92,-474.979)">
                <path d="M248.293,1163.83C248.411,1163.84 248.53,1163.84 248.648,1163.85C249.118,1163.87 249.573,1163.92 249.985,1164C250.294,1164.06 250.578,1164.13 250.828,1164.21C251.582,1164.45 251.996,1164.79 251.958,1165.12C251.946,1165.24 251.885,1165.35 251.778,1165.45C251.671,1165.56 251.517,1165.66 251.323,1165.76C251.068,1165.88 250.749,1166 250.438,1166.11C249.55,1166.42 248.528,1166.7 247.365,1166.91C247.035,1166.96 246.692,1167.02 246.335,1167.06C245.998,1167.1 245.646,1167.13 245.289,1167.13C244.813,1167.15 244.331,1167.13 243.873,1167.09C243.529,1167.06 243.199,1167.01 242.894,1166.95C241.868,1166.76 241.169,1166.41 241.021,1166.04C240.962,1165.89 240.989,1165.74 241.1,1165.6C241.324,1165.3 241.888,1165.04 242.669,1164.87C242.766,1164.85 242.867,1164.82 242.97,1164.81C243.136,1164.78 243.312,1164.75 243.477,1164.72C243.573,1164.7 243.665,1164.68 243.756,1164.66C244.162,1164.56 244.515,1164.44 244.834,1164.31L245.067,1164.22C245.294,1164.15 245.344,1164.13 245.6,1164.08C246.08,1163.96 246.638,1163.89 247.224,1163.85C247.537,1163.83 247.618,1163.83 247.935,1163.83C248.054,1163.83 248.174,1163.83 248.293,1163.83ZM254.212,1159.22C254.33,1159.23 254.449,1159.23 254.566,1159.24C254.918,1159.26 255.262,1159.29 255.584,1159.34C256.781,1159.52 257.629,1159.88 257.809,1160.3C257.858,1160.41 257.859,1160.52 257.811,1160.63C257.795,1160.67 257.769,1160.71 257.748,1160.74C257.631,1160.9 257.509,1161.07 257.385,1161.23C257.177,1161.49 256.959,1161.75 256.728,1162L256.706,1162.03C256.603,1162.12 256.588,1162.15 256.446,1162.24C256.233,1162.37 255.943,1162.49 255.594,1162.6C255.245,1162.7 254.837,1162.78 254.396,1162.84C253.955,1162.89 253.481,1162.92 253.004,1162.93C251.802,1162.94 250.622,1162.78 249.842,1162.49C249.61,1162.4 249.415,1162.31 249.264,1162.21C249.113,1162.11 249.006,1162 248.947,1161.89C248.845,1161.7 248.891,1161.5 249.063,1161.32C249.198,1161.17 249.329,1161.02 249.456,1160.86C249.585,1160.7 249.709,1160.55 249.829,1160.39L249.919,1160.27L249.973,1160.19L250.068,1160.08C250.11,1160.05 250.147,1160.01 250.193,1159.98C250.287,1159.91 250.4,1159.84 250.531,1159.78C251.058,1159.53 251.871,1159.34 252.794,1159.26C253.024,1159.24 253.26,1159.23 253.497,1159.22C253.616,1159.22 253.735,1159.22 253.855,1159.22C253.974,1159.22 254.093,1159.22 254.212,1159.22ZM256.503,1154.27C256.621,1154.28 256.74,1154.28 256.857,1154.29C257.09,1154.31 257.32,1154.33 257.541,1154.35C258.658,1154.49 259.53,1154.79 259.876,1155.15C259.979,1155.26 260.036,1155.37 260.044,1155.49C260.047,1155.52 260.039,1155.56 260.037,1155.6C259.987,1155.83 259.929,1156.07 259.867,1156.3C259.822,1156.46 259.775,1156.62 259.725,1156.79L259.693,1156.89C259.676,1156.92 259.664,1156.96 259.641,1157C259.551,1157.14 259.377,1157.29 259.128,1157.41C258.879,1157.54 258.556,1157.66 258.18,1157.75C257.898,1157.82 257.587,1157.88 257.256,1157.92C256.145,1158.06 254.856,1158.04 253.803,1157.86C253.385,1157.79 253.009,1157.69 252.699,1157.58C252.155,1157.38 251.821,1157.12 251.754,1156.86C251.729,1156.76 251.744,1156.74 251.761,1156.64C251.837,1156.4 251.903,1156.17 251.965,1155.93C252.004,1155.78 252.041,1155.62 252.076,1155.46L252.083,1155.43C252.096,1155.39 252.104,1155.36 252.123,1155.32C252.178,1155.21 252.282,1155.1 252.43,1155C252.927,1154.65 253.917,1154.39 255.083,1154.3C255.315,1154.28 255.551,1154.27 255.789,1154.27C255.908,1154.27 256.027,1154.27 256.146,1154.27C256.265,1154.27 256.384,1154.27 256.503,1154.27ZM256.513,1149.27C256.631,1149.27 256.75,1149.28 256.868,1149.28C257.22,1149.3 257.564,1149.34 257.887,1149.38C258.863,1149.53 259.622,1149.8 259.962,1150.12C260.037,1150.19 260.091,1150.27 260.124,1150.34C260.141,1150.38 260.147,1150.41 260.158,1150.45C260.195,1150.68 260.227,1150.9 260.254,1151.13C260.273,1151.3 260.289,1151.48 260.303,1151.65L260.309,1151.74C260.302,1151.84 260.311,1151.86 260.261,1151.96C260.131,1152.22 259.735,1152.46 259.143,1152.65C258.293,1152.92 257.075,1153.05 255.879,1153.01C255.524,1153 255.174,1152.97 254.841,1152.93C254.398,1152.87 253.988,1152.79 253.636,1152.69C253.284,1152.59 252.99,1152.47 252.774,1152.33C252.557,1152.2 252.418,1152.05 252.364,1151.9C252.351,1151.87 252.348,1151.83 252.34,1151.79C252.322,1151.55 252.298,1151.3 252.268,1151.06C252.247,1150.9 252.223,1150.74 252.197,1150.58L252.195,1150.46C252.205,1150.43 252.21,1150.39 252.225,1150.35C252.271,1150.24 252.365,1150.13 252.504,1150.03C252.971,1149.68 253.938,1149.41 255.096,1149.31C255.326,1149.29 255.561,1149.28 255.798,1149.27C255.917,1149.27 256.037,1149.27 256.156,1149.26C256.275,1149.26 256.394,1149.27 256.513,1149.27ZM254.741,1144.31C254.859,1144.31 254.978,1144.32 255.094,1144.33C255.328,1144.34 255.556,1144.36 255.777,1144.39C256.665,1144.51 257.404,1144.72 257.834,1144.99C257.941,1145.06 258.029,1145.13 258.096,1145.2C258.13,1145.23 258.153,1145.27 258.182,1145.31C258.297,1145.49 258.408,1145.67 258.514,1145.85C258.625,1146.05 258.732,1146.25 258.834,1146.44L258.907,1146.59C258.942,1146.68 258.962,1146.71 258.955,1146.81C258.936,1147.07 258.648,1147.33 258.141,1147.54C257.412,1147.84 256.262,1148.02 255.059,1148.03C254.701,1148.04 254.343,1148.02 253.996,1148C253.533,1147.96 253.092,1147.89 252.7,1147.81C252.307,1147.72 251.965,1147.62 251.693,1147.49C251.422,1147.37 251.221,1147.23 251.105,1147.09C251.076,1147.05 251.057,1147.01 251.033,1146.98C250.941,1146.8 250.846,1146.61 250.745,1146.43C250.624,1146.22 250.498,1146.01 250.363,1145.79L250.309,1145.68C250.302,1145.64 250.289,1145.61 250.287,1145.57C250.281,1145.46 250.324,1145.35 250.413,1145.24C250.745,1144.83 251.722,1144.5 252.978,1144.37C253.316,1144.33 253.67,1144.31 254.027,1144.3C254.146,1144.3 254.265,1144.3 254.385,1144.3C254.504,1144.3 254.622,1144.31 254.741,1144.31ZM249.567,1139.6C249.881,1139.61 249.962,1139.62 250.266,1139.64C250.723,1139.69 251.153,1139.76 251.531,1139.85C251.814,1139.92 252.068,1140 252.283,1140.09C252.428,1140.15 252.543,1140.21 252.666,1140.28C252.78,1140.34 252.891,1140.4 253,1140.46C253.57,1140.78 254.071,1141.11 254.536,1141.44L254.57,1141.47C254.681,1141.56 254.719,1141.58 254.789,1141.68C254.974,1141.93 254.894,1142.21 254.564,1142.45C254.423,1142.55 254.237,1142.65 254.013,1142.74C253.261,1143.03 252.097,1143.21 250.894,1143.21C250.536,1143.21 250.179,1143.19 249.834,1143.16C249.374,1143.12 248.939,1143.05 248.553,1142.97C248.167,1142.88 247.833,1142.77 247.571,1142.64C247.506,1142.61 247.449,1142.58 247.388,1142.55C247.168,1142.4 246.969,1142.25 246.751,1142.11C246.529,1141.96 246.299,1141.82 246.049,1141.68C245.973,1141.64 245.895,1141.6 245.816,1141.56C245.777,1141.54 245.737,1141.51 245.698,1141.49C245.694,1141.49 245.706,1141.5 245.71,1141.5L245.536,1141.4C245.487,1141.37 245.434,1141.33 245.39,1141.3C245.215,1141.16 245.12,1141.01 245.113,1140.86C245.107,1140.75 245.149,1140.64 245.239,1140.53C245.539,1140.16 246.372,1139.85 247.471,1139.7C247.906,1139.64 248.377,1139.6 248.853,1139.59C248.972,1139.59 249.091,1139.59 249.211,1139.59C249.33,1139.59 249.448,1139.6 249.567,1139.6Z" style="fill:rgb(44,162,210);fill-opacity:0.717647;fill-rule:nonzero;"/>
            </g>
        </g>
    </g>
</svg>
