<?xml version="1.0" encoding="UTF-8" standalone="no"?>
<!DOCTYPE svg PUBLIC "-//W3C//DTD SVG 1.1//EN" "http://www.w3.org/Graphics/SVG/1.1/DTD/svg11.dtd">
<svg width="100%" height="100%" viewBox="0 0 63 69" version="1.1" xmlns="http://www.w3.org/2000/svg" xmlns:xlink="http://www.w3.org/1999/xlink" xml:space="preserve" style="fill-rule:evenodd;clip-rule:evenodd;stroke-linejoin:round;stroke-miterlimit:1.41421;">
    <g transform="matrix(1,0,0,1,-242.066,-694.965)">
        <g transform="matrix(1,0,0,1,1.75,6.75)">
            <g transform="matrix(1,0,0,1,55.8564,-6.75)">
                <path d="M184.596,728.968C184.506,728.004 184.46,727.028 184.46,726.04C184.46,708.889 198.384,694.965 215.535,694.965C232.687,694.965 246.611,708.889 246.611,726.04C246.611,727.028 246.565,728.004 246.475,728.968C244.997,713.188 231.699,700.821 215.535,700.821C199.372,700.821 186.074,713.188 184.596,728.968Z" style="fill:rgb(231,230,223);"/>
            </g>
        </g>
        <g transform="matrix(1,0,0,1,1.75,6.75)">
            <g transform="matrix(1.11112,0,0,1.11112,-112.852,-61.2885)">
                <circle cx="345.817" cy="707.787" r="27.968" style="fill-opacity:0.0196078;"/>
            </g>
        </g>
        <g transform="matrix(1,0,0,1,1.75,6.75)">
            <g transform="matrix(0.647301,0.647301,-0.647301,0.647301,566.408,75.0627)">
                <path d="M271.427,727.19L271.427,713.723C271.427,712.154 272.698,710.883 274.267,710.883C274.268,710.883 274.269,710.883 274.27,710.883C275.838,710.883 277.11,712.154 277.11,713.723L277.11,727.19L290.577,727.19C292.146,727.19 293.417,728.461 293.417,730.03C293.417,730.031 293.417,730.032 293.417,730.033C293.417,731.602 292.146,732.873 290.577,732.873L277.11,732.873L277.11,746.34C277.11,747.909 275.838,749.18 274.27,749.18C274.269,749.18 274.268,749.18 274.267,749.18C272.698,749.18 271.427,747.909 271.427,746.34L271.427,732.873L257.959,732.873C256.391,732.873 255.119,731.602 255.119,730.033C255.119,730.032 255.119,730.031 255.119,730.03C255.119,728.461 256.391,727.19 257.959,727.19L271.427,727.19Z" style="fill-opacity:0.0745098;"/>
            </g>
        </g>
    </g>
</svg>
