<?xml version="1.0" encoding="UTF-8" standalone="no"?><!DOCTYPE svg PUBLIC "-//W3C//DTD SVG 1.1//EN" "http://www.w3.org/Graphics/SVG/1.1/DTD/svg11.dtd"><svg width="100%" height="100%" viewBox="0 0 15 17" version="1.1" xmlns="http://www.w3.org/2000/svg" xmlns:xlink="http://www.w3.org/1999/xlink" xml:space="preserve" style="fill-rule:evenodd;clip-rule:evenodd;stroke-linejoin:round;stroke-miterlimit:1.41421;"><path d="M0.033,8.161c-0.022,-0.231 -0.033,-0.466 -0.033,-0.703c0,-4.116 3.342,-7.458 7.458,-7.458c4.116,0 7.458,3.342 7.458,7.458c0,0.237 -0.011,0.472 -0.032,0.703c-0.355,-3.787 -3.546,-6.756 -7.426,-6.756c-3.879,0 -7.071,2.969 -7.425,6.756Z" style="fill:#e2e1da;"/><circle cx="7.458" cy="8.864" r="7.458" style="fill:#fdfaf0;"/><path d="M7.458,7.981l2.092,-2.092c0.244,-0.244 0.639,-0.244 0.883,0c0,0 0,0 0,0c0.244,0.244 0.244,0.639 0,0.882l-2.092,2.093l2.092,2.092c0.244,0.243 0.244,0.639 0,0.882c0,0 0,0.001 0,0.001c-0.244,0.243 -0.639,0.243 -0.883,0l-2.092,-2.092l-2.092,2.092c-0.244,0.243 -0.639,0.243 -0.882,0c-0.001,0 -0.001,-0.001 -0.001,-0.001c-0.244,-0.243 -0.244,-0.639 0,-0.882l2.092,-2.092l-2.092,-2.093c-0.244,-0.243 -0.244,-0.638 0,-0.882c0,0 0,0 0.001,0c0.243,-0.244 0.638,-0.244 0.882,0l2.092,2.092Z" style="fill:#e2e1da;"/></svg>