<?xml version="1.0" encoding="UTF-8" standalone="no"?><!DOCTYPE svg PUBLIC "-//W3C//DTD SVG 1.1//EN" "http://www.w3.org/Graphics/SVG/1.1/DTD/svg11.dtd"><svg width="100%" height="100%" viewBox="0 0 26 15" version="1.1" xmlns="http://www.w3.org/2000/svg" xmlns:xlink="http://www.w3.org/1999/xlink" xml:space="preserve" style="fill-rule:evenodd;clip-rule:evenodd;stroke-linejoin:round;stroke-miterlimit:1.41421;"><path d="M7.267,0c0,0 9.835,0 14.858,0c1.591,0 2.88,1.289 2.88,2.88c0,2.578 0,6.337 0,8.915c0,0.764 -0.303,1.497 -0.843,2.037c-0.54,0.54 -1.273,0.843 -2.037,0.843c-5.038,0 -14.921,0 -14.921,0l0.063,-14.675Z" style="fill:none;"/><circle cx="7.34" cy="7.029" r="5.618" style="fill:#fffdf6;"/><path d="M7.34,0.011c4.05,0 7.339,3.289 7.339,7.34c0,4.051 -3.289,7.339 -7.339,7.339c-4.051,0 -7.34,-3.288 -7.34,-7.339c0,-4.051 3.289,-7.34 7.34,-7.34Zm0,1.4c3.1,0 5.617,2.517 5.617,5.618c0,3.1 -2.517,5.618 -5.617,5.618c-3.101,0 -5.618,-2.518 -5.618,-5.618c0,-3.101 2.517,-5.618 5.618,-5.618Zm-0.705,6.364l-0.02,-0.004l0.494,-5.265c0,0 -0.001,-0.077 0.037,-0.138c0.03,-0.047 0.079,-0.115 0.209,-0.115c0.11,0 0.181,0.048 0.211,0.099c0.042,0.072 0.047,0.138 0.047,0.138l0.373,4.629l2.065,1.935c0,0 0.042,0.03 0.054,0.085c0.009,0.042 0.018,0.109 -0.056,0.215c-0.064,0.09 -0.131,0.129 -0.177,0.133c-0.064,0.007 -0.103,-0.015 -0.103,-0.015l-3.134,-1.697Z" style="fill:#e6e6e6;"/><path d="M1.752,7.612c0.292,2.827 2.684,5.035 5.588,5.035c2.903,0 5.296,-2.208 5.587,-5.035c0.02,0.191 0.03,0.386 0.03,0.582c0,3.101 -2.517,5.618 -5.617,5.618c-3.101,0 -5.618,-2.517 -5.618,-5.618c0,-0.196 0.01,-0.391 0.03,-0.582Z" style="fill-opacity:0.0784314;"/></svg>