<?xml version="1.0" encoding="UTF-8" standalone="no"?><!DOCTYPE svg PUBLIC "-//W3C//DTD SVG 1.1//EN" "http://www.w3.org/Graphics/SVG/1.1/DTD/svg11.dtd"><svg width="100%" height="100%" viewBox="0 0 26 15" version="1.1" xmlns="http://www.w3.org/2000/svg" xmlns:xlink="http://www.w3.org/1999/xlink" xml:space="preserve" style="fill-rule:evenodd;clip-rule:evenodd;stroke-linejoin:round;stroke-miterlimit:1.41421;"><path d="M7.267,0.012l0,-0.012c0,0 9.835,0 14.858,0c1.591,0 2.88,1.289 2.88,2.88c0,2.578 0,6.337 0,8.915c0,0.764 -0.303,1.497 -0.843,2.037c-0.54,0.54 -1.273,0.843 -2.037,0.843l-14.31,0c-0.157,0.01 -0.316,0.015 -0.475,0.015c-4.051,0 -7.34,-3.288 -7.34,-7.339c0,-4.027 3.25,-7.3 7.267,-7.339Z" style="fill:#81b62f;"/><circle cx="7.34" cy="7.029" r="5.618" style="fill:#fffdf6;"/><circle cx="7.34" cy="8.335" r="5.618" style="fill-opacity:0.227451;"/><path d="M15.444,8.185l0,-2.481l2.533,0c0,0 0,-1.019 0,-1.848c0,-0.188 0.11,-0.358 0.28,-0.436c0.171,-0.079 0.372,-0.05 0.514,0.072c1.027,0.886 2.781,2.398 3.583,3.089c0.105,0.091 0.166,0.224 0.166,0.364c0,0.139 -0.061,0.272 -0.166,0.363c-0.802,0.691 -2.556,2.203 -3.583,3.089c-0.142,0.122 -0.343,0.151 -0.514,0.073c-0.17,-0.079 -0.28,-0.249 -0.28,-0.437c0,-0.829 0,-1.848 0,-1.848l-2.533,0Z" style="fill:#403d2d;"/><circle cx="7.34" cy="7.029" r="5.618" style="fill:#fffdf6;"/><path d="M7.146,2.368c-0.038,0.061 -0.037,0.138 -0.037,0.138l-0.494,5.265l0.729,0.148l0.693,-0.165l-0.424,-5.264c0,0 -0.005,-0.066 -0.047,-0.138c-0.03,-0.051 -0.101,-0.099 -0.211,-0.099c-0.13,0 -0.179,0.068 -0.209,0.115Z" style="fill:#403d2d;"/><path d="M10.105,9.139c-0.012,-0.055 -0.054,-0.085 -0.054,-0.085l-2.621,-2.455l-0.502,0.538l-0.308,0.63l3.149,1.705c0,0 0.039,0.022 0.103,0.015c0.046,-0.004 0.113,-0.043 0.177,-0.133c0.074,-0.106 0.065,-0.173 0.056,-0.215Z" style="fill:#403d2d;"/></svg>