<?xml version="1.0" encoding="UTF-8" standalone="no"?><!DOCTYPE svg PUBLIC "-//W3C//DTD SVG 1.1//EN" "http://www.w3.org/Graphics/SVG/1.1/DTD/svg11.dtd"><svg width="100%" height="100%" viewBox="0 0 15 15" version="1.1" xmlns="http://www.w3.org/2000/svg" xmlns:xlink="http://www.w3.org/1999/xlink" xml:space="preserve" style="fill-rule:evenodd;clip-rule:evenodd;stroke-linejoin:round;stroke-miterlimit:1.41421;"><path d="M13.943,12.791c-0.134,0.498 -0.464,0.922 -0.914,1.175c-1.081,0.604 -2.326,0.95 -3.651,0.95c-4.116,0 -9.378,-6.92 -9.378,-7.458c0,-0.538 5.262,-7.458 9.378,-7.458c1.351,0 2.619,0.36 3.712,0.989c0.415,0.239 0.726,0.625 0.871,1.081c1.034,3.318 1,6.899 -0.018,10.721Zm-5.319,-6.216l2.092,-2.092c0.244,-0.244 0.639,-0.244 0.883,0c0,0 0,0 0,0.001c0.244,0.243 0.244,0.638 0,0.882l-2.092,2.092l2.092,2.092c0.244,0.244 0.244,0.639 0,0.883c0,0 0,0 0,0c-0.244,0.244 -0.639,0.244 -0.883,0l-2.092,-2.092l-2.092,2.092c-0.244,0.244 -0.639,0.244 -0.882,0c0,0 -0.001,0 -0.001,0c-0.243,-0.244 -0.243,-0.639 0,-0.883l2.092,-2.092l-2.092,-2.092c-0.243,-0.244 -0.243,-0.639 0,-0.882c0,-0.001 0.001,-0.001 0.001,-0.001c0.243,-0.244 0.638,-0.244 0.882,0l2.092,2.092Z" style="fill:#008b8b;"/></svg>