<?xml version="1.0" encoding="UTF-8" standalone="no"?><!DOCTYPE svg PUBLIC "-//W3C//DTD SVG 1.1//EN" "http://www.w3.org/Graphics/SVG/1.1/DTD/svg11.dtd"><svg width="100%" height="100%" viewBox="0 0 29 17" version="1.1" xmlns="http://www.w3.org/2000/svg" xmlns:xlink="http://www.w3.org/1999/xlink" xml:space="preserve" style="fill-rule:evenodd;clip-rule:evenodd;stroke-linejoin:round;stroke-miterlimit:1.41421;"><path d="M8.201,0c0,0 11.596,0 17.136,0c0.764,0 1.496,0.303 2.036,0.844c0.54,0.54 0.844,1.272 0.844,2.036c0,3.03 0,7.77 0,10.8c0,1.591 -1.29,2.88 -2.88,2.88c-5.556,0 -17.208,0 -17.208,0l0.072,-16.56Z" style="fill:none;"/><circle cx="8.282" cy="8.295" r="6.339" style="fill:#222;"/><path d="M8.282,0.013c4.571,0 8.282,3.711 8.282,8.282c0,4.571 -3.711,8.282 -8.282,8.282c-4.571,0 -8.282,-3.711 -8.282,-8.282c0,-4.571 3.711,-8.282 8.282,-8.282Zm0,1.943c3.499,0 6.34,2.84 6.34,6.339c0,3.499 -2.841,6.339 -6.34,6.339c-3.499,0 -6.339,-2.84 -6.339,-6.339c0,-3.499 2.84,-6.339 6.339,-6.339Z" style="fill:#f5f5f5;"/><path d="M8.064,3.036c-0.043,0.069 -0.042,0.155 -0.042,0.155l-0.558,5.942l0.823,0.167l0.782,-0.187l-0.478,-5.94c0,0 -0.006,-0.074 -0.054,-0.155c-0.034,-0.058 -0.113,-0.112 -0.237,-0.112c-0.147,0 -0.203,0.077 -0.236,0.13Z" style="fill:#f5f5f5;"/><path d="M8.064,3.036c-0.043,0.069 -0.042,0.155 -0.042,0.155l-0.558,5.942l0.823,0.167l0.782,-0.187l-0.478,-5.94c0,0 -0.006,-0.074 -0.054,-0.155c-0.034,-0.058 -0.113,-0.112 -0.237,-0.112c-0.147,0 -0.203,0.077 -0.236,0.13Z" style="fill:#f5f5f5;"/><path d="M11.403,10.676c-0.013,-0.062 -0.061,-0.095 -0.061,-0.095l-2.957,-2.771l-0.567,0.607l-0.348,0.711l3.554,1.925c0,0 0.044,0.024 0.116,0.016c0.052,-0.005 0.127,-0.049 0.199,-0.15c0.085,-0.119 0.074,-0.195 0.064,-0.243Z" style="fill:#f5f5f5;"/><path d="M11.403,10.676c-0.013,-0.062 -0.061,-0.095 -0.061,-0.095l-2.957,-2.771l-0.567,0.607l-0.348,0.711l3.554,1.925c0,0 0.044,0.024 0.116,0.016c0.052,-0.005 0.127,-0.049 0.199,-0.15c0.085,-0.119 0.074,-0.195 0.064,-0.243Z" style="fill:#f5f5f5;"/></svg>