<?xml version="1.0" encoding="UTF-8" standalone="no"?><!DOCTYPE svg PUBLIC "-//W3C//DTD SVG 1.1//EN" "http://www.w3.org/Graphics/SVG/1.1/DTD/svg11.dtd"><svg width="100%" height="100%" viewBox="0 0 29 17" version="1.1" xmlns="http://www.w3.org/2000/svg" xmlns:xlink="http://www.w3.org/1999/xlink" xml:space="preserve" style="fill-rule:evenodd;clip-rule:evenodd;stroke-linejoin:round;stroke-miterlimit:1.41421;"><path d="M8.064,3.036c-0.043,0.069 -0.042,0.155 -0.042,0.155l-0.558,5.942l0.823,0.167l0.782,-0.187l-0.478,-5.94c0,0 -0.006,-0.074 -0.054,-0.155c-0.034,-0.058 -0.113,-0.112 -0.237,-0.112c-0.147,0 -0.203,0.077 -0.236,0.13Z" style="fill:#f5f5f5;"/><path d="M11.403,10.676c-0.013,-0.062 -0.061,-0.095 -0.061,-0.095l-2.957,-2.771l-0.567,0.607l-0.348,0.711l3.554,1.925c0,0 0.044,0.024 0.116,0.016c0.052,-0.005 0.127,-0.049 0.199,-0.15c0.085,-0.119 0.074,-0.195 0.064,-0.243Z" style="fill:#f5f5f5;"/><path d="M8.201,0.013l0,-0.013c0,0 11.596,0 17.136,0c0.764,0 1.496,0.303 2.036,0.844c0.54,0.54 0.844,1.272 0.844,2.036c0,3.03 0,7.77 0,10.8c0,1.591 -1.29,2.88 -2.88,2.88l-16.518,0c-0.178,0.011 -0.357,0.017 -0.537,0.017c-4.571,0 -8.282,-3.711 -8.282,-8.282c0,-4.544 3.667,-8.238 8.201,-8.282Zm0.081,1.943c3.499,0 6.34,2.84 6.34,6.339c0,3.499 -2.841,6.339 -6.34,6.339c-3.499,0 -6.339,-2.84 -6.339,-6.339c0,-3.499 2.84,-6.339 6.339,-6.339Zm9.802,7.838l0,-2.482l2.533,0c0,0 0,-1.018 0,-1.847c0,-0.188 0.11,-0.359 0.28,-0.437c0.171,-0.078 0.372,-0.05 0.514,0.073c1.027,0.886 2.781,2.398 3.583,3.089c0.105,0.091 0.166,0.224 0.166,0.363c0,0.14 -0.061,0.273 -0.166,0.364c-0.802,0.691 -2.556,2.203 -3.583,3.088c-0.142,0.123 -0.343,0.151 -0.514,0.073c-0.17,-0.078 -0.28,-0.248 -0.28,-0.436c0,-0.829 0,-1.848 0,-1.848l-2.533,0Z" style="fill:#81b62f;"/></svg>